<mxfile host="app.diagrams.net" agent="Mozilla/5.0 (Windows NT 10.0; Win64; x64) AppleWebKit/537.36 (KHTML, like Gecko) Chrome/137.0.0.0 Safari/537.36" version="27.1.6">
  <diagram id="C5RBs43oDa-KdzZeNtuy" name="Page-1">
    <mxGraphModel dx="872" dy="439" grid="1" gridSize="10" guides="1" tooltips="1" connect="1" arrows="1" fold="1" page="1" pageScale="1" pageWidth="827" pageHeight="1169" math="0" shadow="0">
      <root>
        <mxCell id="WIyWlLk6GJQsqaUBKTNV-0" />
        <mxCell id="WIyWlLk6GJQsqaUBKTNV-1" parent="WIyWlLk6GJQsqaUBKTNV-0" />
        <mxCell id="EbYezUl0zW1qitCCAeMy-3" style="edgeStyle=orthogonalEdgeStyle;rounded=0;orthogonalLoop=1;jettySize=auto;html=1;exitX=0.5;exitY=1;exitDx=0;exitDy=0;entryX=0.5;entryY=0;entryDx=0;entryDy=0;" edge="1" parent="WIyWlLk6GJQsqaUBKTNV-1" source="EbYezUl0zW1qitCCAeMy-0" target="EbYezUl0zW1qitCCAeMy-2">
          <mxGeometry relative="1" as="geometry" />
        </mxCell>
        <mxCell id="EbYezUl0zW1qitCCAeMy-0" value="Inicio" style="ellipse;whiteSpace=wrap;html=1;aspect=fixed;fillColor=#d5e8d4;strokeColor=#82b366;" vertex="1" parent="WIyWlLk6GJQsqaUBKTNV-1">
          <mxGeometry x="334" y="70" width="80" height="80" as="geometry" />
        </mxCell>
        <mxCell id="EbYezUl0zW1qitCCAeMy-5" style="edgeStyle=orthogonalEdgeStyle;rounded=0;orthogonalLoop=1;jettySize=auto;html=1;" edge="1" parent="WIyWlLk6GJQsqaUBKTNV-1" source="EbYezUl0zW1qitCCAeMy-2" target="EbYezUl0zW1qitCCAeMy-4">
          <mxGeometry relative="1" as="geometry" />
        </mxCell>
        <mxCell id="EbYezUl0zW1qitCCAeMy-2" value="Mostrar mensaje: &quot;Por favor,ingrese una palabra&quot;" style="shape=parallelogram;perimeter=parallelogramPerimeter;whiteSpace=wrap;html=1;fixedSize=1;fillColor=#ffe6cc;strokeColor=#d79b00;" vertex="1" parent="WIyWlLk6GJQsqaUBKTNV-1">
          <mxGeometry x="282" y="190" width="184" height="80" as="geometry" />
        </mxCell>
        <mxCell id="EbYezUl0zW1qitCCAeMy-7" style="edgeStyle=orthogonalEdgeStyle;rounded=0;orthogonalLoop=1;jettySize=auto;html=1;entryX=0.5;entryY=0;entryDx=0;entryDy=0;" edge="1" parent="WIyWlLk6GJQsqaUBKTNV-1" source="EbYezUl0zW1qitCCAeMy-4" target="EbYezUl0zW1qitCCAeMy-6">
          <mxGeometry relative="1" as="geometry" />
        </mxCell>
        <mxCell id="EbYezUl0zW1qitCCAeMy-4" value="Definir la variable cantidad_letras y asignarle la longitud de la palabra_ingresada" style="rounded=1;whiteSpace=wrap;html=1;absoluteArcSize=1;arcSize=14;strokeWidth=2;fillColor=#dae8fc;strokeColor=#6c8ebf;" vertex="1" parent="WIyWlLk6GJQsqaUBKTNV-1">
          <mxGeometry x="249" y="320" width="250" height="100" as="geometry" />
        </mxCell>
        <mxCell id="EbYezUl0zW1qitCCAeMy-6" value="Mostrar mensaje: &quot;La palabra ingresada tiene&quot;, cantidad-letras, &quot;letras.&quot;" style="shape=parallelogram;perimeter=parallelogramPerimeter;whiteSpace=wrap;html=1;fixedSize=1;fillColor=#ffe6cc;strokeColor=#d79b00;" vertex="1" parent="WIyWlLk6GJQsqaUBKTNV-1">
          <mxGeometry x="270" y="470" width="208" height="80" as="geometry" />
        </mxCell>
        <mxCell id="EbYezUl0zW1qitCCAeMy-8" value="Fin" style="strokeWidth=2;html=1;shape=mxgraph.flowchart.start_2;whiteSpace=wrap;fillColor=#d5e8d4;strokeColor=#82b366;" vertex="1" parent="WIyWlLk6GJQsqaUBKTNV-1">
          <mxGeometry x="324" y="600" width="100" height="100" as="geometry" />
        </mxCell>
        <mxCell id="EbYezUl0zW1qitCCAeMy-9" style="edgeStyle=orthogonalEdgeStyle;rounded=0;orthogonalLoop=1;jettySize=auto;html=1;entryX=0.5;entryY=0;entryDx=0;entryDy=0;entryPerimeter=0;" edge="1" parent="WIyWlLk6GJQsqaUBKTNV-1" source="EbYezUl0zW1qitCCAeMy-6" target="EbYezUl0zW1qitCCAeMy-8">
          <mxGeometry relative="1" as="geometry" />
        </mxCell>
      </root>
    </mxGraphModel>
  </diagram>
</mxfile>
